# xmcd
#
# Track frame offsets: 
#        150
#        26080
#        41077
#        66216
#        97192
#        125495
#        145993
#        166971
#        183774
#        221975
#        258833
#        276605
#
# Disc length: 4025 seconds
#
# Revision: 0
# Processed by: cddbd v1.5.2PL0 Copyright (c) Steve Scherf et al.
# Submitted via: ExactAudioCopyFreeDBPlugin 1.0
#
DISCID=be0fb70c
DTITLE=Maurice Starr - Flaming Starr
DYEAR=1980
DGENRE=Funk
TTITLE0=Moving On Up
TTITLE1=I Wanna Dance With You
TTITLE2=Come See Me Sometime
TTITLE3=Start All Over
TTITLE4=Dance To The Funky Groove
TTITLE5=When I Say I Love You
TTITLE6=You're The One (What's Your Name?)
TTITLE7=In My Life
TTITLE8=Bout Time I Funk U (12" Version)
TTITLE9=Baby Come On (12" Version)
TTITLE10=When I Say I Love You (7" Version)
TTITLE11=Dance To The Funky Groove (12" Version)
EXTD=
EXTT0=
EXTT1=
EXTT2=
EXTT3=
EXTT4=
EXTT5=
EXTT6=
EXTT7=
EXTT8=
EXTT9=
EXTT10=
EXTT11=
PLAYORDER=
